<?xml version="1.0" encoding="UTF-8"?>
<svg width="24px" height="24px" viewBox="0 0 24 24" version="1.1" xmlns="http://www.w3.org/2000/svg" xmlns:xlink="http://www.w3.org/1999/xlink">
    <!-- Generator: Sketch 63.1 (92452) - https://sketch.com -->
    <title>ic-client@2x</title>
    <desc>Created with Sketch.</desc>
    <g id="ic-client" stroke="none" stroke-width="1" fill="none" fill-rule="evenodd">
        <g id="001-customer" transform="translate(1.000000, 0.000000)" fill="#8F9BB3" fill-rule="nonzero">
            <path d="M16.8,16.4 L16.8,12.4 C16.7978516,10.4126953 15.1873047,8.80214845 13.2,8.8 L6.8,8.8 C4.8126953,8.80214845 3.20214845,10.4126953 3.2,12.4 L3.2,17.6 L4,17.6 L4,12.4 C4.0017578,10.8542969 5.2542969,9.6017578 6.8,9.6 L7.434375,9.6 L9.7171875,11.8828125 C9.8734375,12.0388672 10.1265625,12.0388672 10.2828125,11.8828125 L12.565625,9.6 L13.2,9.6 C14.7457031,9.6017578 15.9982422,10.8542969 16,12.4 L16,16.4 L16.8,16.4 Z M10,11.034375 L8.565625,9.6 L11.434375,9.6 L10,11.034375 Z" id="Shape"></path>
            <polygon id="Path" points="6 13.2 6.8 13.2 6.8 16.8 6 16.8"></polygon>
            <polygon id="Path" points="13.2 13.2 14 13.2 14 16 13.2 16"></polygon>
            <path d="M21.6,17.6 L16.4988281,17.6 C15.6171875,17.1173828 14.6310547,16.8578125 13.6259766,16.8439453 C13.5957031,16.8412109 13.5640625,16.840039 13.5359375,16.840039 C12.500586,16.840039 11.4816406,17.0996094 10.572461,17.5951172 L7.6,17.6 C6.71640625,17.6 6,18.3164062 6,19.2 C5.9996094,19.2316406 6.0015625,19.2632812 6.00566405,19.2947265 C6.01152345,19.4044922 6.02910155,19.5130859 6.0576172,19.6191406 L3.8027344,18.5859375 L3.76640625,18.5679687 L2.41953125,17.9527344 C1.89121095,17.7095703 1.2751953,17.752539 0.7855469,18.0664062 C0.2957031,18.3804687 -0.000390625,18.9222656 -1.74207016e-05,19.5039062 L-1.74207016e-05,19.5919922 C-0.00292969,20.2394531 0.3638672,20.8316406 0.94472655,21.1175781 L6.1167969,23.7076172 C6.5060547,23.8996094 6.9339844,23.9996094 7.36796875,24 L21.6,24 C21.8208985,24 22,23.8208984 22,23.6 L22,18 C22,17.7791015 21.8208985,17.6 21.6,17.6 L21.6,17.6 Z M16,23.2 L7.36796875,23.2 C7.05703125,23.199414 6.7501953,23.1277344 6.47128905,22.9904297 L1.3015625,20.4 C0.99375,20.2486328 0.79902345,19.9351562 0.799996344,19.5919922 L0.799996344,19.5039062 C0.799996344,19.1949219 0.95722655,18.9072265 1.2175781,18.7404297 C1.4777344,18.5736328 1.8048828,18.5509765 2.0855469,18.6800781 L3.42128905,19.290039 L3.45722655,19.3076172 L6.6328125,20.7636719 C6.68535155,20.7876953 6.7423828,20.8 6.79999634,20.8 L11.2,20.8 L11.2,20 L7.6,20 C7.17265625,20.0005859 6.82109375,19.6634765 6.80371095,19.2363281 C6.803125,19.2230469 6.8019531,19.2095703 6.79999634,19.1964844 C6.8019531,18.7560547 7.1595703,18.4 7.6,18.4 L10.6679688,18.4 C10.7365234,18.4 10.8039063,18.3824219 10.8636719,18.3488281 L10.9595703,18.2947265 C11.7466797,17.8671875 12.627539,17.6410156 13.5232422,17.6363281 C13.5474609,17.6412109 13.5720703,17.64375 13.596875,17.6439453 C14.4333984,17.6519531 15.2566406,17.8560547 16,18.240039 L16,23.2 Z M21.2,23.2 L16.8,23.2 L16.8,18.4 L21.2,18.4 L21.2,23.2 Z" id="Shape"></path>
            <polygon id="Path" points="17.6 21.6 18.4 21.6 18.4 22.4 17.6 22.4"></polygon>
            <path d="M10,8 C11.7666015,7.9980469 13.1980469,6.56640625 13.2,4.8 L13.2,3.2 C13.2,1.4326172 11.7673828,0 10,0 C8.2326172,0 6.8,1.4326172 6.8,3.2 L6.8,4.8 C6.8019531,6.56640625 8.23359375,7.9980469 10,8 Z M7.6,3.2 C7.6,1.8746094 8.6746094,0.8 10,0.8 C11.3255859,0.8 12.4,1.8746094 12.4,3.2 L12.4,4.8 C12.4,6.1253906 11.3255859,7.2 10,7.2 C8.6746094,7.2 7.6,6.1253906 7.6,4.8 L7.6,3.2 Z" id="Shape"></path>
            <path d="M9.2,3.2 C9.20078125,2.8611328 9.4142578,2.5591797 9.73359375,2.4455078 L9.46640625,1.69160155 C8.8279297,1.9185547 8.40097655,2.5222656 8.4,3.2 L8.4,3.6 L9.2,3.6 L9.2,3.2 Z" id="Path"></path>
        </g>
    </g>
</svg>