<?xml version="1.0" encoding="UTF-8"?>
<svg width="24px" height="24px" viewBox="0 0 24 24" version="1.1" xmlns="http://www.w3.org/2000/svg" xmlns:xlink="http://www.w3.org/1999/xlink">
    <!-- Generator: Sketch 63.1 (92452) - https://sketch.com -->
    <title>ic-caregiver@2x</title>
    <desc>Created with Sketch.</desc>
    <g id="ic-caregiver" stroke="none" stroke-width="1" fill="none" fill-rule="evenodd">
        <g id="003-nurse" transform="translate(4.200000, 0.000000)" fill="#8F9BB3" fill-rule="nonzero">
            <path d="M0.8,22.4 L2.8,22.4 L2.8,24 L3.6,24 L3.6,18 L2.8,18 L2.8,21.6 L0.8,21.6 L0.8,17.341408 C0.800143136,16.9056001 1.03644568,16.5040944 1.417384,16.2924 L3.954516,14.882852 L5.820704,16.437908 C5.96487467,16.5574943 6.14627926,16.6229826 6.333592,16.623064 C6.36440315,16.6230905 6.39518802,16.6212645 6.42578,16.617596 C6.64326744,16.5917239 6.84074745,16.4781313 6.97246,16.30314 L7.2,15.999828 L7.2,18.712108 C6.94641143,18.9376801 6.80093214,19.2606048 6.8,19.6 L6.8,22.8 C6.80072308,23.462442 7.33755804,23.9992769 8,24 L12.4,24 L12.4,22.4 L14.4,22.4 L14.4,24 L15.2,24 L15.2,17.341408 C15.1997553,16.6151593 14.8060366,15.9460542 14.171288,15.593164 L11.443116,14.077492 L10.746484,13.38086 C10.4459675,13.0821573 10.0104674,12.9635811 9.6,13.0687 L9.6,12.357812 C11.3038277,11.5761479 12.3971317,9.8745718 12.4,8 L12.4,4.326292 C12.8780743,4.15789553 13.1984407,3.70686285 13.2,3.2 L13.2,2.8 C13.1982651,1.25432187 11.9456781,0.00173485976 10.4,0 L7.2,0 C6.53589638,0.000259995743 5.91525852,0.330238074 5.543652,0.88064 C5.43664115,0.828208516 5.31916363,0.800641714 5.2,0.8 L4.8,0.8 C3.69596779,0.801296057 2.80129606,1.69596779 2.8,2.8 L2.8,8 C2.80286835,9.8745718 3.89617229,11.5761479 5.6,12.357812 L5.6,13.068724 C5.18953666,12.9635808 4.75402831,13.0821501 4.453516,13.38086 L3.756884,14.077492 L1.028712,15.593164 C0.393963416,15.9460542 0.000244693052,16.6151593 0,17.341408 L0,24 L0.8,24 L0.8,22.4 Z M11.6,23.2 L8,23.2 C7.77920487,23.1997135 7.60028648,23.0207951 7.6,22.8 L7.6,19.6 C7.60028648,19.3792049 7.77920487,19.2002865 8,19.2 L11.6,19.2 L11.6,23.2 Z M6.4,13.519312 L6.4,12.642 C7.18613382,12.8526461 8.01386618,12.8526461 8.8,12.642 L8.8,13.519296 L7.6,14.31924 L6.4,13.519312 Z M11.245484,14.882836 L13.782616,16.2924 C14.1635543,16.5040944 14.3998569,16.9056001 14.4,17.341408 L14.4,21.6 L12.4,21.6 L12.4,18 L11.6,18 L11.6,18.4 L8,18.4 L8,15.999876 L8.227344,16.302928 C8.35909267,16.4780084 8.55664335,16.5916716 8.77422,16.61758 C8.80481198,16.6212485 8.83559685,16.6230745 8.866408,16.623048 C9.05381213,16.6229558 9.23529582,16.5573947 9.379492,16.437696 L11.245484,14.882836 Z M9.676172,13.89668 C9.83491457,13.7914536 10.0457471,13.8122591 10.18086,13.946484 L10.60742,14.373048 L8.867384,15.823048 L8.173828,14.898248 L9.676172,13.89668 Z M6,2 C6.00072308,1.33755804 6.53755804,0.800723085 7.2,0.8 L10.4,0.8 C11.5040322,0.801296057 12.3987039,1.69596779 12.4,2.8 L12.4,3.2 C12.3997135,3.42079513 12.2207951,3.59971352 12,3.6 L7.2,3.6 C6.53755804,3.59927692 6.00072308,3.06244196 6,2.4 L6,2 Z M3.6,2.8 C3.60072308,2.13755804 4.13755804,1.60072308 4.8,1.6 L5.2,1.6 L5.2,2.4 C5.19927692,3.06244196 4.66244196,3.59927692 4,3.6 L3.6,3.6 L3.6,2.8 Z M3.6,8 L3.6,4.4 L4,4.4 C4.63198626,4.39827243 5.22568,4.09683334 5.6,3.587624 C5.97432,4.09683334 6.56801374,4.39827243 7.2,4.4 L11.6,4.4 L11.6,8 C11.6,10.209139 9.809139,12 7.6,12 C5.390861,12 3.6,10.209139 3.6,8 Z M5.01914,13.946484 C5.15412086,13.8119792 5.36516017,13.7911533 5.523828,13.89668 L7.026368,14.898244 L6.332616,15.823244 L4.59258,14.373048 L5.01914,13.946484 Z" id="Shape"></path>
            <polygon id="Path" points="9.2 22.4 10 22.4 10 21.6 10.8 21.6 10.8 20.8 10 20.8 10 20 9.2 20 9.2 20.8 8.4 20.8 8.4 21.6 9.2 21.6"></polygon>
        </g>
    </g>
</svg>