<?xml version="1.0" encoding="UTF-8"?>
<svg width="24px" height="24px" viewBox="0 0 24 24" version="1.1" xmlns="http://www.w3.org/2000/svg" xmlns:xlink="http://www.w3.org/1999/xlink">
    <!-- Generator: Sketch 63.1 (92452) - https://sketch.com -->
    <title>ic-completed matches@2x</title>
    <desc>Created with Sketch.</desc>
    <g id="ic-completed-matches" stroke="none" stroke-width="1" fill="none" fill-rule="evenodd">
        <g id="005-confirm" fill="#8F9BB3" fill-rule="nonzero">
            <path d="M11.9614222,0 C5.39075556,0 0.0147555556,5.38257778 0.0147555556,11.9614222 C0.0147555556,18.5402667 5.39075556,23.9228444 11.9614222,23.9228444 C18.5320889,23.9228444 23.9080889,18.5402667 23.9080889,11.9614222 C23.9080889,5.38257778 18.5320889,0 11.9614222,0 Z M11.9614222,22.7074837 C6.05831799,22.7074837 1.22850544,17.8716476 1.22850544,11.9614246 C1.22850544,6.0512016 6.05831799,1.21518293 11.9614222,1.21518293 C17.8645265,1.21518293 22.694339,6.05101906 22.694339,11.9612421 C22.694339,17.8714651 17.8645265,22.7074837 11.9614222,22.7074837 Z" id="Shape"></path>
            <path d="M16.6654222,8.44764444 L10.4680889,14.6526222 L7.33208889,11.5128889 C7.03342222,11.2138667 6.58542222,11.2138667 6.28675556,11.5128889 C5.98808889,11.8119111 5.98808889,12.2604444 6.28675556,12.5594667 L9.94542222,16.2225778 C10.0947556,16.3720889 10.2440889,16.4469333 10.4680889,16.4469333 C10.6920889,16.4469333 10.8414222,16.3720889 10.9907556,16.2225778 L17.7107556,9.4944 C18.0094222,9.19537778 18.0094222,8.74684444 17.7107556,8.44782222 C17.4120889,8.14862222 16.9640889,8.14862222 16.6654222,8.44764444 Z" id="Path"></path>
        </g>
    </g>
</svg>