<?xml version="1.0" encoding="UTF-8"?>
<svg width="24px" height="24px" viewBox="0 0 24 24" version="1.1" xmlns="http://www.w3.org/2000/svg" xmlns:xlink="http://www.w3.org/1999/xlink">
    <!-- Generator: Sketch 63.1 (92452) - https://sketch.com -->
    <title>ic-outstanding matches@2x</title>
    <desc>Created with Sketch.</desc>
    <g id="ic-outstanding-matches" stroke="none" stroke-width="1" fill="none" fill-rule="evenodd">
        <g id="004-select" transform="translate(2.484375, 0.000000)" fill="#8F9BB3" fill-rule="nonzero">
            <path d="M17.015625,6.99998438 C16.604625,6.99998438 16.2216094,7.125 15.9036094,7.338 C15.629625,6.56001563 14.8866094,6 14.015625,6 C13.604625,6 13.2216094,6.12501562 12.9036094,6.33801563 C12.629625,5.56003125 11.8866094,5.00001563 11.015625,5.00001563 C10.6516406,5.00001563 10.3096406,5.09803125 10.0156406,5.26903125 L10.0156406,2.00001563 C10.0156406,0.897 9.11864062,0 8.015625,0 C6.91260937,0 6.01560938,0.897 6.01560938,2.00001563 L6.01560938,13.6910156 L3.266625,12.3160312 C2.852625,12.1089844 2.38860937,12 1.925625,12 C0.871640625,12 0.015609375,12.8570156 0.015609375,13.9160156 C0.015609375,14.427 0.21459375,14.9060156 0.575625,15.267 L7.04160938,21.7329844 C8.50260937,23.1950156 10.4476406,24 12.515625,24 C16.0996406,24 19.0156406,21.084 19.0156406,17.4999844 L19.0156406,9 C19.0156406,7.89698437 18.1186406,6.99998438 17.015625,6.99998438 Z M18.0156094,17.4999844 C18.0156094,20.5329844 15.5475937,22.9999687 12.5145937,22.9999687 C10.7136094,22.9999687 9.02160937,22.2989531 7.74960937,21.0249844 L1.28264062,14.559 C1.11065625,14.388 1.01564062,14.1590156 1.01564062,13.9100156 C1.01564062,13.4080312 1.42364062,13.0000312 1.925625,13.0000312 C2.234625,13.0000312 2.54264062,13.0730156 2.819625,13.2110156 L6.29264062,14.9470312 C6.44765625,15.0240469 6.632625,15.0160312 6.77864062,14.9250469 C6.92564062,14.8340625 7.01564062,14.6730469 7.01564062,14.5000312 L7.01564062,2.00001562 C7.01564062,1.449 7.463625,1.00003125 8.015625,1.00003125 C8.567625,1.00003125 9.01560937,1.44904687 9.01560937,2.00001562 L9.01560937,11.5000312 C9.01560937,11.7760312 9.239625,12.0000469 9.515625,12.0000469 C9.791625,12.0000469 10.0156406,11.7760312 10.0156406,11.5000312 L10.0156406,7.00003125 C10.0156406,6.44901562 10.463625,6.00004687 11.015625,6.00004687 C11.567625,6.00004687 12.0156094,6.4490625 12.0156094,7.00003125 L12.0156094,11.5000312 C12.0156094,11.7760312 12.239625,12.0000469 12.515625,12.0000469 C12.791625,12.0000469 13.0156406,11.7760312 13.0156406,11.5000312 L13.0156406,8.00001562 C13.0156406,7.449 13.463625,7.00003125 14.015625,7.00003125 C14.567625,7.00003125 15.0156094,7.44904687 15.0156094,8.00001562 L15.0156094,11.5000312 C15.0156094,11.7760312 15.239625,12.0000469 15.515625,12.0000469 C15.791625,12.0000469 16.0156406,11.7760312 16.0156406,11.5000312 L16.0156406,9 C16.0156406,8.44898437 16.463625,8.00001562 17.015625,8.00001562 C17.567625,8.00001562 18.0156094,8.44903125 18.0156094,9 L18.0156094,17.4999844 L18.0156094,17.4999844 Z" id="Shape"></path>
        </g>
    </g>
</svg>