<?xml version="1.0" encoding="UTF-8"?>
<svg width="24px" height="24px" viewBox="0 0 24 24" version="1.1" xmlns="http://www.w3.org/2000/svg" xmlns:xlink="http://www.w3.org/1999/xlink">
    <!-- Generator: Sketch 63.1 (92452) - https://sketch.com -->
    <title>ic-system settings@2x</title>
    <desc>Created with Sketch.</desc>
    <g id="ic-system-settings" stroke="none" stroke-width="1" fill="none" fill-rule="evenodd">
        <g id="002-setting" fill="#8F9BB3" fill-rule="nonzero">
            <path d="M23.6,8.8 L20.1896,8.8 C20.1464,8.69 20.1012,8.5804 20.0536,8.472 L22.4652,6.06 C22.62135,5.9038 22.62135,5.6506 22.4652,5.4944 L18.5052,1.5344 C18.349,1.37825 18.0958,1.37825 17.9396,1.5344 L15.5276,3.946 C15.4192,3.8984 15.3096,3.8532 15.1996,3.81 L15.1996,0.4 C15.1996,0.1791 15.0205,0 14.7996,0 L9.2,0 C8.9791,0 8.8,0.1791 8.8,0.4 L8.8,3.8104 C8.69,3.8536 8.5804,3.8988 8.472,3.9464 L6.06,1.5348 C5.9038,1.37865 5.6506,1.37865 5.4944,1.5348 L1.5344,5.4948 C1.37825,5.651 1.37825,5.9042 1.5344,6.0604 L3.946,8.4724 C3.8984,8.5808 3.8532,8.6904 3.81,8.8004 L0.4,8.8004 C0.1791,8.8004 0,8.9795 0,9.2004 L0,14.8 C0,15.0209 0.1791,15.2 0.4,15.2 L3.8104,15.2 C3.8536,15.31 3.8988,15.4196 3.9464,15.528 L1.5348,17.94 C1.37865,18.0962 1.37865,18.3494 1.5348,18.5056 L5.4948,22.4656 C5.651,22.62175 5.9042,22.62175 6.0604,22.4656 L8.4724,20.054 C8.5808,20.1016 8.6904,20.1468 8.8004,20.19 L8.8004,23.6 C8.8004,23.8209 8.9795,24 9.2004,24 L14.8,24 C15.0209,24 15.2,23.8209 15.2,23.6 L15.2,20.1896 C15.31,20.1464 15.4196,20.1012 15.528,20.0536 L17.94,22.4652 C18.0962,22.62135 18.3494,22.62135 18.5056,22.4652 L22.4656,18.5052 C22.62175,18.349 22.62175,18.0958 22.4656,17.9396 L20.054,15.5276 C20.1016,15.4192 20.1468,15.3096 20.19,15.1996 L23.6,15.1996 C23.8209,15.1996 24,15.0205 24,14.7996 L24,9.2 C24,8.9791 23.8209,8.8 23.6,8.8 Z M23.2,14.4 L19.9116,14.4 C19.74215,14.40015 19.5912,14.50705 19.5348,14.6668 C19.44165,14.9303 19.33485,15.1888 19.2148,15.4412 C19.14205,15.59465 19.1741,15.7773 19.2948,15.8968 L21.6204,18.2228 L18.2264,21.6168 L15.9004,19.2912 C15.7809,19.1705 15.59825,19.13845 15.4448,19.2112 C15.1924,19.33125 14.9339,19.43805 14.6704,19.5312 C14.51065,19.5876 14.40375,19.73855 14.4036,19.908 L14.4036,23.2 L9.6,23.2 L9.6,19.9116 C9.59985,19.74215 9.49295,19.5912 9.3332,19.5348 C9.0697,19.44165 8.8112,19.3348 8.5588,19.2148 C8.40535,19.14205 8.2227,19.1741 8.1032,19.2948 L5.7772,21.6204 L2.3832,18.2228 L4.7088,15.8968 C4.8295,15.7773 4.86155,15.59465 4.7888,15.4412 C4.66875,15.1888 4.56195,14.9303 4.4688,14.6668 C4.41195,14.5058 4.25915,14.3986 4.0884,14.4 L0.8,14.4 L0.8,9.6 L4.0884,9.6 C4.25785,9.59985 4.4088,9.49295 4.4652,9.3332 C4.55835,9.0697 4.66515,8.8112 4.7852,8.5588 C4.85795,8.40535 4.8259,8.2227 4.7052,8.1032 L2.3832,5.7772 L5.7772,2.3832 L8.1032,4.7088 C8.2227,4.8295 8.40535,4.86155 8.5588,4.7888 C8.8112,4.66875 9.0697,4.56195 9.3332,4.4688 C9.4942,4.41195 9.6014,4.25915 9.6,4.0884 L9.6,0.8 L14.4,0.8 L14.4,4.0884 C14.40015,4.25785 14.50705,4.4088 14.6668,4.4652 C14.9303,4.55835 15.1888,4.66515 15.4412,4.7852 C15.59465,4.85795 15.7773,4.8259 15.8968,4.7052 L18.2228,2.3796 L21.6168,5.7736 L19.2912,8.0996 C19.1705,8.2191 19.13845,8.40175 19.2112,8.5552 C19.33125,8.8076 19.43805,9.0661 19.5312,9.3296 C19.5876,9.48935 19.73855,9.59625 19.908,9.5964 L23.2,9.5964 L23.2,14.4 Z" id="Shape"></path>
            <path d="M12,6.4 C8.9072,6.4 6.4,8.9072 6.4,12 C6.4,15.0928 8.9072,17.6 12,17.6 C15.0928,17.6 17.6,15.0928 17.6,12 C17.5967,8.9086 15.0914,6.4033 12,6.4 Z M12,16.8 C9.34905,16.8 7.2,14.65095 7.2,12 C7.2,9.34905 9.34905,7.2 12,7.2 C14.65095,7.2 16.8,9.34905 16.8,12 C16.79715,14.6498 14.6498,16.79715 12,16.8 Z" id="Shape"></path>
        </g>
    </g>
</svg>